<?xml version="1.0" encoding="UTF-8"?>
<svg id="Layer_1" data-name="Layer 1" xmlns="http://www.w3.org/2000/svg" viewBox="0 0 176.88 146.65">
  <defs>
    <style>
      .cls-1 {
        fill: #565a5b;
      }

      .cls-2 {
        fill: #f61829;
      }

      .cls-3 {
        fill: #575a5a;
        opacity: .2;
      }
    </style>
  </defs>
  <g>
    <path class="cls-2" d="M109.12,46.98c0,1.92-.18,3.81-.51,5.64h-.01s-36.95,.01-36.95,.01c0-2.88,1.17-5.49,3.06-7.38,1.88-1.89,4.49-3.06,7.37-3.06h15.82s.02-.01,0-.02c-1.81-7.69-7.91-13.73-15.64-15.48-1.48-.34-3.02-.51-4.6-.51-2.1,0-4.12,.31-6.02,.88-4.52,1.37-8.39,4.22-11.03,8-1.49,2.12-2.59,4.53-3.2,7.13-.36,1.54-.55,3.15-.55,4.79,0,1.96,.27,3.85,.77,5.65,.64,2.27,1.66,4.39,2.98,6.27,1.91,2.73,4.76,5.32,7.98,6.93v11.3c-2.83-.85-5.54-2.14-7.98-3.72-2.54-1.64-4.83-3.64-6.79-5.92-3.58-4.15-6.08-9.24-7.1-14.86-.33-1.83-.51-3.72-.51-5.65,0-1.63,.13-3.23,.36-4.79,1.39-9.07,6.65-16.86,14.04-21.64,3.3-2.13,7.03-3.66,11.03-4.44,1.95-.38,3.96-.57,6.02-.57,1.56,0,3.1,.11,4.6,.33,13.62,2,24.41,12.73,26.48,26.32,.24,1.57,.37,3.16,.37,4.79Z"/>
    <path class="cls-3" d="M102.65,104.59c.34,.01,.7,.02,1.04,.02s.7,0,1.04-.02h-2.09Z"/>
  </g>
  <g>
    <path class="cls-1" d="M135.13,72.58c0,1.72-.14,3.41-.41,5.06-.92,5.75-3.41,10.97-7.01,15.23-2.31,2.73-5.08,5.07-8.2,6.88-2.4,1.41-5,2.5-7.75,3.23-2.26,.6-4.61,.95-7.03,1.03h-22.43v20.7c0,3.1-2.66,5.58-5.83,5.28-2.76-.27-4.78-2.74-4.78-5.51v-31.31s0-.02,0-.03V55.44h10.59v37.43h2.79c4.6,0,13.66-.01,13.82-.02,3.4-.16,9.88,.6,15.22-2.27,2.08-1.12,3.86-2.71,5.39-4.5,2.06-2.4,3.57-5.28,4.36-8.44,.41-1.62,.62-3.32,.62-5.06,0-1.97-.27-3.87-.78-5.67-.83-2.92-2.27-5.59-4.2-7.83-1.93-2.27-4.34-4.11-7.07-5.38-.13-.06-.21-.2-.19-.34l.21-1.31c.3-1.84,.45-3.73,.45-5.65,0-1.18-.06-2.35-.17-3.5-.02-.22,.18-.39,.39-.32,2.25,.7,4.39,1.65,6.38,2.82,3.03,1.76,5.73,4.02,7.99,6.65,3.59,4.15,6.1,9.24,7.12,14.86,.34,1.84,.51,3.73,.51,5.67Z"/>
    <path class="cls-2" d="M110.23,72.78c0,2.96-2.41,5.36-5.37,5.36h-19.47v-10.73h19.47c2.96,0,5.37,2.4,5.37,5.37Z"/>
  </g>
</svg>